<svg width="40" height="49" viewBox="0 0 40 49" fill="none" xmlns="http://www.w3.org/2000/svg">
<path d="M20 48.2842L5.85786 34.1422C-1.95262 26.3315 -1.95262 13.6683 5.85786 5.85786C13.6683 -1.95262 26.3315 -1.95262 34.1422 5.85786C41.9526 13.6683 41.9526 26.3315 34.1422 34.1422L20 48.2842Z" fill="#212121"/>
<path d="M28.3334 28.5H11.6667V26.8333H12.5001V14.3333C12.5001 13.8731 12.8732 13.5 13.3334 13.5H25.0001C25.4603 13.5 25.8334 13.8731 25.8334 14.3333V18.5H27.5001V26.8333H28.3334V28.5ZM24.1667 26.8333H25.8334V20.1667H20.8334V26.8333H22.5001V21.8333H24.1667V26.8333ZM24.1667 18.5V15.1667H14.1667V26.8333H19.1667V18.5H24.1667ZM15.8334 20.1667H17.5001V21.8333H15.8334V20.1667ZM15.8334 23.5H17.5001V25.1667H15.8334V23.5ZM15.8334 16.8333H17.5001V18.5H15.8334V16.8333Z" fill="white"/>
</svg>
